<?xml version="1.0"?>
<svg width="1193.967" height="140.667" xmlns="http://www.w3.org/2000/svg" xmlns:svg="http://www.w3.org/2000/svg">
 <g class="layer">
  <title>Layer 1</title>
  <path d="m23.24,23.69c-0.71,1.15 -0.95,2.43 -1.11,5.75c-0.16,3.33 0.19,5.59 0.32,10.87c0.13,5.28 0.24,8.79 0.34,15.52c0.1,6.73 0.22,10.82 0.18,18.12c-0.04,7.31 -0.16,11.35 -0.38,18.41c-0.21,7.06 -0.35,10.72 -0.68,16.89c-0.32,6.18 -0.62,9.35 -0.95,14c-0.34,4.66 -0.71,6.44 -0.71,9.28c-0.01,2.84 0.21,3.91 0.68,4.93c0.46,1.01 0.99,1.08 1.63,0.15c0.65,-0.93 1.22,-1.98 1.6,-4.82c0.37,-2.84 0.15,-4.68 0.28,-9.37c0.12,-4.68 0.19,-7.85 0.35,-14.05c0.17,-6.2 0.28,-9.86 0.47,-16.94c0.19,-7.07 0.33,-11.12 0.49,-18.44c0.15,-7.32 0.13,-11.42 0.26,-18.15c0.14,-6.74 0.24,-10.24 0.4,-15.52c0.15,-5.28 0.54,-7.54 0.4,-10.87c-0.15,-3.33 -0.41,-4.61 -1.12,-5.77c-0.72,-1.15 -1.74,-1.15 -2.45,0.01" fill="#ffffd1" id="svg_1" stroke="black"/>
  <path d="m5.4,25.45c1.01,-0.43 1.33,-1.52 2.5,-3c1.17,-1.47 1.55,-2.41 3.34,-4.38c1.8,-1.97 2.67,-3.62 5.66,-5.47c2.99,-1.86 5.09,-2.77 9.29,-3.78c4.19,-1.02 6.86,-1.28 11.68,-1.32c4.82,-0.03 7.69,0.11 12.43,1.13c4.74,1.02 7.32,1.91 11.29,3.96c3.97,2.04 5.92,3.53 8.58,6.28c2.66,2.74 3.65,4.28 4.73,7.44c1.08,3.16 1.22,4.82 0.67,8.35c-0.56,3.53 -1.27,5.48 -3.46,9.32c-2.18,3.83 -3.91,6.04 -7.47,9.85c-3.55,3.82 -6,5.89 -10.3,9.22c-4.31,3.34 -7,4.99 -11.23,7.44c-4.23,2.46 -6.75,3.25 -9.91,4.85c-3.16,1.6 -4.26,2.12 -5.89,3.15c-1.63,1.03 -1.88,1.35 -2.24,1.99c-0.36,0.64 -0.28,0.97 0.44,1.23c0.72,0.25 1.22,0.51 3.16,0.05c1.95,-0.46 3.28,-0.74 6.56,-2.34c3.28,-1.61 5.59,-2.98 9.85,-5.7c4.26,-2.71 6.99,-4.39 11.44,-7.87c4.44,-3.47 6.99,-5.53 10.78,-9.51c3.8,-3.98 5.73,-6.2 8.19,-10.4c2.47,-4.21 3.48,-6.44 4.14,-10.64c0.67,-4.19 0.51,-6.49 -0.81,-10.33c-1.32,-3.85 -2.7,-5.73 -5.81,-8.88c-3.1,-3.15 -5.31,-4.66 -9.7,-6.88c-4.38,-2.22 -7.14,-3.1 -12.22,-4.22c-5.08,-1.12 -8.04,-1.29 -13.2,-1.37c-5.16,-0.09 -7.9,0.07 -12.6,0.94c-4.71,0.87 -7.15,1.6 -10.9,3.41c-3.76,1.81 -5.59,3.25 -7.89,5.64c-2.3,2.38 -2.88,4.06 -3.61,6.26c-0.72,2.21 -0.53,3.64 -0.03,4.76c0.51,1.11 1.53,1.26 2.54,0.82" fill="#ffffd1" id="svg_2" stroke="black"/>
  <path d="m75.79,114.75c0.84,0.7 1.82,1.07 3.9,1c2.08,-0.06 3.67,-0.12 6.5,-1.34c2.83,-1.23 4.54,-2.53 7.65,-4.78c3.11,-2.25 4.89,-3.68 7.89,-6.48c3,-2.81 4.61,-4.51 7.11,-7.53c2.5,-3.02 3.86,-4.58 5.38,-7.59c1.51,-3.02 2.11,-4.76 2.19,-7.49c0.08,-2.73 -0.34,-4.27 -1.78,-6.16c-1.45,-1.9 -2.78,-2.83 -5.44,-3.32c-2.67,-0.48 -4.64,-0.39 -7.91,0.88c-3.26,1.26 -5.17,2.68 -8.43,5.43c-3.26,2.75 -5.1,4.73 -7.85,8.33c-2.74,3.6 -4.19,5.77 -5.88,9.67c-1.69,3.9 -2.46,6.11 -2.55,9.84c-0.09,3.73 0.24,5.97 2.1,8.81c1.87,2.85 3.68,4.01 7.24,5.4c3.56,1.4 5.87,1.59 10.56,1.59c4.69,-0.01 7.99,-0.64 12.9,-1.6c4.92,-0.97 7.81,-1.82 11.69,-3.22c3.88,-1.41 6.34,-2.6 7.71,-3.82c1.37,-1.22 0.93,-2.25 -0.85,-2.28c-1.79,-0.03 -4.22,1.14 -8.09,2.13c-3.87,1 -6.61,2 -11.28,2.86c-4.67,0.86 -7.89,1.46 -12.07,1.45c-4.19,-0.02 -6.13,-0.48 -8.86,-1.52c-2.74,-1.04 -3.57,-1.75 -4.82,-3.68c-1.25,-1.93 -1.53,-3.15 -1.41,-5.97c0.11,-2.82 0.53,-4.79 2,-8.13c1.46,-3.35 2.79,-5.45 5.34,-8.6c2.56,-3.14 4.45,-4.92 7.41,-7.12c2.97,-2.19 4.9,-2.79 7.43,-3.83c2.52,-1.05 3.67,-1.21 5.22,-1.38c1.55,-0.17 2.01,-0.2 2.52,0.53c0.51,0.74 0.41,1.42 0.01,3.16c-0.41,1.74 -0.75,3.05 -2.03,5.53c-1.29,2.49 -2.18,4.15 -4.38,6.91c-2.19,2.76 -3.76,4.43 -6.62,6.88c-2.85,2.46 -4.66,3.67 -7.66,5.39c-3,1.72 -4.86,2.08 -7.33,3.21c-2.47,1.13 -3.43,1.57 -5,2.44c-1.57,0.86 -2.34,1.03 -2.85,1.91c-0.5,0.88 -0.51,1.79 0.34,2.49" fill="#ffffd1" id="svg_3" stroke="black"/>
  <path d="m176.25,77.79c-0.64,-0.81 -1.46,-1.56 -3.47,-1.66c-2,-0.09 -3.65,-0.24 -6.55,1.18c-2.91,1.43 -4.77,2.95 -7.96,5.94c-3.19,2.99 -5.04,5.18 -7.99,9.01c-2.94,3.83 -4.61,6.24 -6.75,10.14c-2.13,3.9 -3.44,6.01 -3.91,9.35c-0.47,3.34 0.09,5.23 1.55,7.36c1.47,2.12 3.02,3.06 5.77,3.27c2.75,0.21 4.71,-0.35 7.99,-2.24c3.27,-1.89 4.98,-3.54 8.39,-7.2c3.4,-3.66 5.23,-6 8.64,-11.11c3.41,-5.1 5.19,-8.22 8.41,-14.41c3.22,-6.2 4.84,-9.85 7.69,-16.57c2.85,-6.72 4.29,-10.6 6.58,-17.02c2.28,-6.42 3.25,-9.84 4.84,-15.06c1.58,-5.23 2.49,-7.55 3.08,-11.06c0.58,-3.52 0.56,-4.98 -0.15,-6.52c-0.7,-1.53 -1.96,-1.95 -3.38,-1.16c-1.43,0.8 -2.63,1.93 -3.74,5.14c-1.11,3.21 -1.09,5.76 -1.8,10.93c-0.71,5.16 -1.1,8.59 -1.74,14.9c-0.63,6.3 -1.02,10.13 -1.42,16.64c-0.4,6.52 -0.57,10.04 -0.57,15.92c0.01,5.88 0.1,8.74 0.59,13.48c0.5,4.75 0.73,6.86 1.9,10.26c1.16,3.41 1.92,4.87 3.92,6.77c2,1.9 3.45,2.51 6.08,2.75c2.63,0.23 4.37,-0.01 7.08,-1.56c2.72,-1.56 3.87,-3.29 6.49,-6.22c2.62,-2.92 3.97,-4.93 6.63,-8.41c2.66,-3.48 4.15,-5.68 6.67,-9c2.51,-3.31 3.94,-5.11 5.92,-7.58c1.98,-2.48 2.81,-3.52 3.98,-4.79c1.18,-1.28 1.37,-1.6 1.88,-1.58c0.51,0.02 0.4,0.48 0.67,1.68c0.28,1.2 0.32,2.23 0.69,4.31c0.38,2.09 0.72,3.5 1.17,6.1c0.46,2.6 0.7,4.26 1.1,6.91c0.4,2.65 0.35,4.24 0.9,6.33c0.56,2.09 0.92,3.13 1.89,4.14c0.97,1.01 1.77,1.22 2.96,0.9c1.19,-0.32 1.91,-0.93 2.98,-2.5c1.08,-1.56 1.6,-2.77 2.39,-5.31c0.79,-2.54 0.66,-4.47 1.57,-7.39c0.92,-2.92 1.6,-4.58 2.99,-7.19c1.39,-2.62 2.2,-3.95 3.95,-5.91c1.74,-1.96 2.72,-2.65 4.79,-3.9c2.07,-1.24 3.21,-1.72 5.56,-2.3c2.35,-0.59 3.64,-0.61 6.19,-0.61c2.56,0.01 3.95,0.28 6.59,0.63c2.65,0.35 4.12,0.7 6.64,1.14c2.51,0.43 3.76,0.76 5.94,1.04c2.18,0.28 3.24,0.47 4.96,0.35c1.72,-0.13 2.86,-0.33 3.63,-0.98c0.77,-0.64 0.8,-1.47 0.22,-2.24c-0.58,-0.77 -1.59,-1 -3.11,-1.62c-1.52,-0.61 -2.41,-0.9 -4.5,-1.48c-2.08,-0.58 -3.34,-0.87 -5.93,-1.41c-2.59,-0.54 -4.11,-0.93 -7.03,-1.28c-2.91,-0.35 -4.5,-0.6 -7.54,-0.49c-3.03,0.12 -4.7,0.24 -7.64,1.08c-2.94,0.84 -4.43,1.5 -7.06,3.13c-2.62,1.62 -3.89,2.62 -6.07,5c-2.18,2.37 -3.05,3.95 -4.82,6.85c-1.77,2.91 -2.56,4.63 -4.04,7.66c-1.48,3.03 -2.59,4.76 -3.38,7.5c-0.79,2.73 -0.78,4.28 -0.57,6.17c0.22,1.9 0.87,2.75 1.65,3.28c0.79,0.53 1.6,0.32 2.28,-0.65c0.68,-0.97 0.94,-2.05 1.11,-4.21c0.18,-2.15 -0.02,-3.74 -0.23,-6.54c-0.21,-2.81 -0.27,-4.61 -0.82,-7.48c-0.55,-2.88 -0.87,-4.53 -1.93,-6.9c-1.07,-2.38 -1.82,-3.56 -3.39,-4.99c-1.58,-1.43 -2.56,-1.99 -4.47,-2.18c-1.91,-0.18 -3.03,-0.03 -5.08,1.25c-2.06,1.28 -3.02,2.5 -5.18,5.15c-2.17,2.64 -3.18,4.69 -5.65,8.06c-2.46,3.38 -3.98,5.52 -6.67,8.83c-2.68,3.3 -4.26,5.17 -6.76,7.7c-2.5,2.53 -3.85,3.51 -5.75,4.93c-1.9,1.42 -2.38,2.03 -3.75,2.17c-1.36,0.15 -1.87,-0.12 -3.07,-1.44c-1.2,-1.31 -1.86,-2.25 -2.94,-5.13c-1.09,-2.87 -1.79,-4.79 -2.48,-9.25c-0.68,-4.46 -0.87,-7.3 -0.96,-13.05c-0.09,-5.75 0.06,-9.27 0.53,-15.69c0.46,-6.42 0.87,-10.24 1.77,-16.43c0.91,-6.19 1.61,-9.57 2.73,-14.52c1.13,-4.94 2.26,-7.1 2.9,-10.19c0.64,-3.1 0.52,-4.23 0.31,-5.3c-0.21,-1.07 -0.8,-1.17 -1.35,-0.06c-0.54,1.1 -0.71,2.27 -1.39,5.59c-0.68,3.31 -0.72,5.79 -2,10.98c-1.28,5.2 -2.22,8.62 -4.38,15c-2.17,6.37 -3.6,10.25 -6.44,16.88c-2.83,6.62 -4.48,10.24 -7.75,16.27c-3.28,6.02 -5.12,9.06 -8.63,13.84c-3.5,4.77 -5.49,6.9 -8.88,10.03c-3.39,3.13 -5.35,4.03 -8.05,5.6c-2.71,1.57 -3.88,1.93 -5.45,2.26c-1.58,0.33 -2,0.39 -2.43,-0.63c-0.43,-1.02 -0.37,-1.94 0.27,-4.46c0.65,-2.51 1.1,-4.6 2.95,-8.11c1.86,-3.52 3.49,-6 6.32,-9.44c2.83,-3.45 4.76,-5.47 7.83,-7.81c3.08,-2.34 5.17,-2.68 7.54,-3.9c2.38,-1.23 2.99,-1.56 4.33,-2.22c1.34,-0.65 1.85,-0.35 2.37,-1.04c0.52,-0.69 0.9,-1.58 0.25,-2.4" fill="#ffffd1" id="svg_4" stroke="black"/>
  <path d="m314.23,83.34c-0.75,0.46 -0.79,0.89 -1.3,2.04c-0.52,1.15 -0.93,1.84 -1.29,3.72c-0.36,1.89 -0.55,3.35 -0.51,5.7c0.04,2.36 0.1,3.8 0.7,6.08c0.6,2.28 0.97,3.62 2.3,5.33c1.33,1.72 2.32,2.49 4.36,3.24c2.03,0.75 3.32,0.95 5.84,0.51c2.52,-0.44 4.16,-1 6.76,-2.69c2.59,-1.69 3.91,-3.13 6.2,-5.75c2.3,-2.62 3.59,-4.21 5.26,-7.36c1.67,-3.14 2.58,-5.03 3.1,-8.37c0.52,-3.33 0.45,-5.29 -0.51,-8.3c-0.97,-3 -1.98,-4.62 -4.31,-6.73c-2.33,-2.12 -4.16,-3 -7.34,-3.86c-3.18,-0.86 -5.36,-0.83 -8.57,-0.44c-3.21,0.38 -5.09,1.22 -7.48,2.37c-2.39,1.16 -3.21,2.17 -4.46,3.39c-1.25,1.22 -1.62,1.87 -1.78,2.72c-0.17,0.84 0.16,1.26 0.95,1.5c0.79,0.25 1.45,0.01 2.98,-0.29c1.53,-0.3 2.54,-0.6 4.68,-1.2c2.14,-0.6 3.55,-1.44 6,-1.81c2.45,-0.37 4,-0.41 6.27,-0.03c2.26,0.38 3.52,0.74 5.06,1.94c1.54,1.2 2.09,2.12 2.62,4.07c0.54,1.94 0.52,3.22 0.04,5.65c-0.49,2.43 -1.04,4.04 -2.48,6.5c-1.43,2.47 -2.65,3.84 -4.71,5.83c-2.05,1.99 -3.56,2.74 -5.57,4.13c-2,1.38 -3.01,2.08 -4.44,2.8c-1.44,0.72 -1.94,0.89 -2.74,0.79c-0.8,-0.09 -1,-0.31 -1.25,-1.26c-0.26,-0.96 -0.12,-1.8 -0.01,-3.51c0.12,-1.7 0.42,-2.92 0.58,-5.02c0.17,-2.1 0.37,-3.53 0.23,-5.47c-0.13,-1.94 -0.36,-2.94 -0.9,-4.24c-0.55,-1.31 -0.97,-1.88 -1.82,-2.28c-0.86,-0.39 -1.71,-0.17 -2.46,0.3" fill="#ffffd1" id="svg_5" stroke="black"/>
  <path d="m456.43,73.76c-0.28,-0.95 -0.78,-1.69 -2.32,-2.38c-1.54,-0.7 -2.84,-1.36 -5.39,-1.09c-2.55,0.28 -4.4,0.75 -7.34,2.48c-2.94,1.73 -4.46,3.36 -7.36,6.19c-2.91,2.82 -4.65,4.67 -7.17,7.93c-2.53,3.27 -4.05,5.18 -5.46,8.4c-1.42,3.22 -1.85,5.09 -1.62,7.71c0.23,2.63 0.94,3.96 2.75,5.41c1.82,1.45 3.48,2.19 6.33,1.85c2.85,-0.35 4.67,-1.36 7.91,-3.59c3.25,-2.23 4.91,-3.92 8.32,-7.58c3.41,-3.65 5.25,-5.85 8.72,-10.68c3.48,-4.84 5.33,-7.81 8.63,-13.51c3.31,-5.7 4.98,-9.06 7.89,-15c2.92,-5.94 4.36,-9.23 6.68,-14.72c2.33,-5.48 3.37,-8.29 4.96,-12.7c1.58,-4.41 2.62,-6.4 2.98,-9.36c0.37,-2.97 -0.15,-4.41 -1.15,-5.48c-1,-1.07 -2.39,-1.24 -3.84,0.13c-1.44,1.36 -2.24,2.97 -3.39,6.7c-1.15,3.73 -1.5,6.52 -2.35,11.95c-0.86,5.42 -1.26,9.03 -1.92,15.17c-0.66,6.13 -1.14,9.62 -1.39,15.52c-0.24,5.89 -0.24,8.9 0.16,13.96c0.41,5.06 0.75,7.37 1.86,11.31c1.11,3.95 1.69,5.76 3.67,8.43c1.99,2.66 3.44,3.69 6.26,4.9c2.82,1.21 4.61,1.55 7.86,1.17c3.25,-0.39 5.07,-1.34 8.37,-3.1c3.3,-1.77 5,-3.15 8.14,-5.73c3.14,-2.58 4.72,-4.35 7.55,-7.18c2.83,-2.83 4.44,-4.4 6.62,-6.99c2.18,-2.59 3.32,-3.85 4.29,-5.98c0.96,-2.13 0.97,-3.3 0.51,-4.67c-0.45,-1.37 -1.28,-2.01 -2.78,-2.18c-1.51,-0.16 -2.91,0.04 -4.74,1.35c-1.84,1.32 -3.08,2.65 -4.45,5.22c-1.38,2.56 -1.91,4.52 -2.43,7.62c-0.52,3.1 -0.68,4.96 -0.18,7.87c0.5,2.92 1.05,4.49 2.68,6.69c1.64,2.21 2.9,3.19 5.49,4.34c2.59,1.15 4.32,1.51 7.47,1.4c3.14,-0.1 5.03,-0.67 8.25,-1.93c3.22,-1.26 4.95,-2.22 7.86,-4.36c2.91,-2.14 4.53,-3.54 6.72,-6.34c2.18,-2.79 3.27,-4.48 4.18,-7.63c0.91,-3.15 1,-5.08 0.37,-8.11c-0.64,-3.02 -1.49,-4.71 -3.54,-6.99c-2.05,-2.29 -3.7,-3.33 -6.72,-4.42c-3.01,-1.09 -5.11,-1.23 -8.35,-1.03c-3.25,0.2 -5.32,0.69 -7.87,2.02c-2.55,1.33 -4.19,3.2 -4.89,4.61c-0.7,1.42 -0.03,2.22 1.37,2.45c1.41,0.22 3.28,-0.82 5.64,-1.3c2.36,-0.49 3.72,-0.98 6.16,-1.14c2.44,-0.15 3.94,-0.18 6.04,0.36c2.11,0.54 3.16,1.04 4.5,2.34c1.34,1.3 1.87,2.27 2.19,4.17c0.32,1.89 0.14,3.08 -0.59,5.31c-0.72,2.22 -1.31,3.63 -3.03,5.82c-1.72,2.2 -3.13,3.47 -5.56,5.15c-2.44,1.69 -4,2.39 -6.62,3.29c-2.62,0.9 -4.17,1 -6.49,1.21c-2.32,0.22 -3.45,0.3 -5.09,-0.16c-1.63,-0.45 -2.31,-0.87 -3.09,-2.12c-0.79,-1.26 -0.91,-2.22 -0.84,-4.17c0.08,-1.95 0.45,-3.35 1.21,-5.58c0.76,-2.22 1.62,-3.53 2.61,-5.55c0.98,-2.01 1.71,-2.99 2.3,-4.54c0.59,-1.55 0.72,-2.38 0.65,-3.2c-0.08,-0.81 -0.34,-1.14 -1.04,-0.87c-0.71,0.27 -1.18,0.72 -2.48,2.22c-1.3,1.5 -2.03,2.82 -4.02,5.28c-1.98,2.46 -3.31,4.27 -5.92,7.02c-2.61,2.75 -4.23,4.42 -7.14,6.74c-2.92,2.33 -4.63,3.44 -7.45,4.87c-2.83,1.44 -4.3,1.87 -6.68,2.3c-2.37,0.43 -3.3,0.53 -5.21,-0.14c-1.9,-0.68 -2.72,-1.24 -4.31,-3.22c-1.58,-1.98 -2.45,-3.27 -3.62,-6.7c-1.17,-3.43 -1.72,-5.66 -2.23,-10.45c-0.51,-4.79 -0.58,-7.76 -0.33,-13.5c0.25,-5.75 0.72,-9.23 1.57,-15.23c0.86,-6 1.49,-9.57 2.7,-14.78c1.21,-5.2 2.39,-7.68 3.36,-11.24c0.97,-3.56 1.45,-4.96 1.49,-6.55c0.04,-1.59 -0.65,-1.96 -1.28,-1.41c-0.63,0.55 -1.17,1.49 -1.87,4.16c-0.71,2.67 -0.48,4.81 -1.68,9.18c-1.2,4.36 -2.17,7.19 -4.33,12.63c-2.16,5.45 -3.59,8.74 -6.45,14.61c-2.87,5.86 -4.55,9.19 -7.88,14.74c-3.33,5.54 -5.22,8.44 -8.76,12.99c-3.54,4.55 -5.5,6.6 -8.95,9.75c-3.46,3.15 -5.42,4.26 -8.31,6.01c-2.88,1.75 -4.3,2.06 -6.13,2.73c-1.82,0.66 -2.34,0.94 -2.99,0.6c-0.64,-0.34 -0.59,-0.74 -0.23,-2.29c0.36,-1.56 0.7,-2.88 2.02,-5.48c1.31,-2.6 2.29,-4.63 4.55,-7.54c2.27,-2.91 4.04,-4.73 6.77,-7.01c2.73,-2.28 4.47,-3.18 6.88,-4.4c2.4,-1.22 3.46,-1.29 5.14,-1.7c1.69,-0.41 2.14,-0.17 3.28,-0.35c1.13,-0.17 1.74,0.05 2.4,-0.53c0.67,-0.58 1.21,-1.42 0.94,-2.38" fill="#ffffd1" id="svg_6" stroke="black"/>
  <path d="m657.15,31.99c-0.64,1.67 -0.46,4.12 -0.49,8.28c-0.03,4.17 0.21,7.03 0.35,12.55c0.13,5.53 0.21,9.35 0.3,15.08c0.09,5.73 0.14,8.69 0.14,13.57c-0.01,4.88 -0.15,7.19 -0.16,10.82c0,3.64 -0.09,5.15 0.14,7.36c0.23,2.21 0.5,2.94 1.02,3.69c0.52,0.75 1,0.79 1.59,0.07c0.59,-0.72 1.02,-1.45 1.35,-3.68c0.32,-2.22 0.32,-3.8 0.28,-7.46c-0.04,-3.66 -0.36,-5.97 -0.5,-10.85c-0.14,-4.89 -0.12,-7.84 -0.19,-13.57c-0.06,-5.73 -0.08,-9.56 -0.14,-15.1c-0.06,-5.53 0.03,-8.39 -0.17,-12.56c-0.2,-4.16 -0.12,-6.61 -0.83,-8.25c-0.7,-1.64 -2.06,-1.62 -2.69,0.05" fill="#ffffd1" id="svg_7" stroke="black"/>
  <path d="m637.96,24.03c0.88,-0.14 0.97,-0.78 2.15,-1.66c1.17,-0.87 1.65,-1.25 3.75,-2.71c2.09,-1.46 3.2,-3.01 6.71,-4.59c3.52,-1.57 6.11,-2.34 10.85,-3.28c4.75,-0.94 7.8,-1.29 12.89,-1.41c5.08,-0.11 7.96,0.06 12.54,0.85c4.58,0.79 6.93,1.6 10.35,3.1c3.42,1.5 4.88,2.71 6.74,4.39c1.87,1.69 2.41,2.33 2.57,4.04c0.16,1.71 -0.3,2.44 -1.76,4.52c-1.46,2.07 -2.73,3.5 -5.55,5.84c-2.82,2.35 -5.07,3.77 -8.55,5.89c-3.48,2.12 -5.88,2.93 -8.85,4.69c-2.96,1.76 -4.59,2.42 -5.99,4.12c-1.39,1.7 -1.58,2.76 -0.98,4.39c0.61,1.63 1.57,2.65 4.02,3.74c2.44,1.08 4.5,0.89 8.23,1.69c3.73,0.8 6.3,1.06 10.42,2.31c4.12,1.25 6.6,2.13 10.17,3.94c3.57,1.8 5.36,2.98 7.68,5.08c2.32,2.11 3.03,3.3 3.91,5.44c0.87,2.15 0.96,3.11 0.46,5.31c-0.49,2.19 -0.88,3.31 -2.95,5.67c-2.07,2.36 -3.7,3.73 -7.39,6.11c-3.69,2.38 -6.22,3.69 -11.07,5.78c-4.85,2.08 -7.97,3.12 -13.16,4.65c-5.2,1.52 -8.14,2.16 -12.81,2.96c-4.67,0.81 -7.1,0.68 -10.54,1.04c-3.44,0.37 -4.67,0.45 -6.67,0.78c-1.99,0.32 -2.6,0.36 -3.29,0.84c-0.68,0.47 -0.79,0.93 -0.13,1.52c0.67,0.59 1.35,1.13 3.46,1.41c2.11,0.28 3.52,0.36 7.1,-0.01c3.58,-0.36 6.01,-0.81 10.79,-1.82c4.78,-1.02 7.76,-1.69 13.11,-3.26c5.34,-1.57 8.51,-2.55 13.6,-4.6c5.09,-2.05 7.73,-3.22 11.85,-5.64c4.13,-2.43 6.14,-3.63 8.78,-6.49c2.63,-2.86 3.67,-4.58 4.39,-7.81c0.72,-3.23 0.45,-5.28 -0.81,-8.36c-1.25,-3.08 -2.61,-4.51 -5.45,-7.05c-2.84,-2.53 -4.86,-3.6 -8.75,-5.64c-3.88,-2.05 -6.42,-2.97 -10.68,-4.57c-4.26,-1.59 -6.86,-2.37 -10.61,-3.39c-3.75,-1.02 -5.74,-1.53 -8.12,-1.71c-2.39,-0.18 -3.39,0.6 -3.81,0.82c-0.41,0.23 0.14,0.77 1.74,0.3c1.59,-0.46 3.24,-1.04 6.26,-2.62c3.01,-1.58 5.21,-2.97 8.81,-5.27c3.59,-2.3 5.97,-3.59 9.16,-6.24c3.19,-2.64 5.09,-4.03 6.78,-7.01c1.68,-2.98 2.05,-4.91 1.64,-7.89c-0.41,-2.99 -1.26,-4.66 -3.69,-7.02c-2.43,-2.35 -4.5,-3.21 -8.46,-4.76c-3.95,-1.55 -6.42,-2.2 -11.33,-2.97c-4.91,-0.78 -7.87,-0.93 -13.22,-0.9c-5.34,0.03 -8.43,0.32 -13.53,1.05c-5.1,0.72 -7.8,1.28 -11.97,2.56c-4.16,1.28 -6.3,2.03 -8.86,3.84c-2.56,1.81 -3.11,3.41 -3.95,5.22c-0.84,1.8 -0.64,2.85 -0.24,3.8c0.41,0.96 1.38,1.12 2.26,0.99" fill="#ffffd1" id="svg_8" stroke="black"/>
  <path d="m764.42,72.85c-0.01,-0.94 -0.25,-1.77 -1.51,-2.67c-1.26,-0.9 -2.38,-1.74 -4.81,-1.83c-2.44,-0.1 -4.27,0 -7.36,1.35c-3.1,1.35 -4.84,2.87 -8.11,5.4c-3.27,2.52 -5.24,4.18 -8.24,7.22c-3,3.04 -4.72,4.87 -6.74,7.99c-2.03,3.11 -2.99,4.85 -3.37,7.57c-0.39,2.72 0.1,4.2 1.43,6.03c1.32,1.83 2.65,2.64 5.2,3.14c2.56,0.5 4.4,0.38 7.55,-0.63c3.16,-1.02 4.93,-2.32 8.22,-4.45c3.28,-2.13 5.08,-3.65 8.22,-6.2c3.13,-2.55 4.84,-4.09 7.46,-6.55c2.62,-2.46 4.27,-3.82 5.65,-5.76c1.38,-1.94 1.35,-3.2 1.26,-3.94c-0.09,-0.73 -0.88,-0.63 -1.7,0.25c-0.83,0.87 -1.69,1.92 -2.43,4.14c-0.73,2.22 -1.25,4.09 -1.25,6.96c0.01,2.86 0.38,4.76 1.28,7.38c0.9,2.61 1.55,3.95 3.22,5.69c1.68,1.75 2.81,2.46 5.15,3.03c2.35,0.57 3.86,0.55 6.58,-0.18c2.72,-0.72 4.23,-1.6 7.01,-3.45c2.78,-1.85 4.17,-3.38 6.87,-5.81c2.7,-2.43 4.41,-4.04 6.63,-6.34c2.22,-2.31 3.3,-3.62 4.46,-5.19c1.16,-1.57 1.27,-2.35 1.34,-2.66c0.07,-0.31 -0.47,-0.02 -0.99,1.11c-0.53,1.14 -1.27,2.46 -1.63,4.54c-0.37,2.09 -0.51,3.63 -0.2,5.87c0.3,2.23 0.66,3.54 1.72,5.31c1.07,1.77 1.81,2.68 3.59,3.53c1.79,0.86 2.98,1.06 5.34,0.77c2.37,-0.28 3.72,-0.84 6.49,-2.19c2.76,-1.35 4.29,-2.8 7.34,-4.56c3.06,-1.75 4.98,-2.88 7.94,-4.21c2.96,-1.33 4.57,-1.84 6.86,-2.44c2.28,-0.6 3.17,-0.89 4.56,-0.57c1.39,0.31 1.72,0.9 2.38,2.14c0.67,1.24 0.47,2.4 0.94,4.07c0.48,1.67 0.7,2.85 1.43,4.3c0.73,1.45 1.3,2.44 2.23,2.95c0.92,0.5 1.7,0.41 2.39,-0.43c0.68,-0.83 1.01,-1.97 1.04,-3.75c0.03,-1.77 -0.12,-3.06 -0.89,-5.13c-0.76,-2.07 -1.33,-3.44 -2.95,-5.2c-1.63,-1.76 -2.72,-2.77 -5.18,-3.6c-2.45,-0.84 -4.08,-1.04 -7.11,-0.58c-3.03,0.45 -4.74,1.46 -8.04,2.85c-3.31,1.4 -5.25,2.56 -8.48,4.11c-3.23,1.54 -5.17,2.32 -7.69,3.62c-2.52,1.3 -3.49,2.08 -4.91,2.89c-1.42,0.81 -1.74,1.17 -2.21,1.15c-0.47,-0.01 -0.34,-0.22 -0.12,-1.23c0.21,-1.01 0.88,-1.9 1.19,-3.8c0.3,-1.9 0.6,-3.44 0.33,-5.69c-0.27,-2.26 -0.64,-3.92 -1.7,-5.6c-1.07,-1.69 -1.9,-2.49 -3.61,-2.84c-1.72,-0.34 -2.92,-0.1 -4.98,1.11c-2.06,1.2 -3.03,2.68 -5.33,4.92c-2.31,2.23 -3.65,4.05 -6.18,6.27c-2.53,2.23 -4.08,3.3 -6.47,4.85c-2.39,1.56 -3.63,2.08 -5.46,2.92c-1.84,0.83 -2.58,1.24 -3.73,1.25c-1.15,0 -1.52,-0.22 -2.03,-1.23c-0.52,-1 -0.6,-1.9 -0.56,-3.82c0.04,-1.93 0.54,-3.35 0.75,-5.8c0.21,-2.46 0.54,-4.16 0.3,-6.47c-0.25,-2.31 -0.63,-3.65 -1.54,-5.09c-0.9,-1.44 -1.5,-2.08 -2.99,-2.11c-1.49,-0.03 -2.49,0.39 -4.44,1.94c-1.95,1.55 -2.86,3.36 -5.29,5.81c-2.44,2.45 -3.94,4.09 -6.9,6.45c-2.96,2.37 -4.83,3.67 -7.9,5.37c-3.06,1.69 -4.92,2.14 -7.43,3.1c-2.52,0.95 -3.63,1.34 -5.16,1.66c-1.54,0.31 -2.11,0.48 -2.52,-0.08c-0.42,-0.56 -0.25,-1.02 0.45,-2.72c0.69,-1.7 1.25,-3.16 3.04,-5.78c1.79,-2.62 3.16,-4.61 5.91,-7.33c2.75,-2.72 4.77,-4.32 7.84,-6.28c3.06,-1.96 5,-2.59 7.5,-3.51c2.49,-0.92 3.43,-0.87 4.96,-1.11c1.53,-0.23 1.77,-0.02 2.69,-0.06c0.92,-0.04 1.24,0.29 1.92,-0.14c0.68,-0.43 1.48,-1.07 1.48,-2" fill="#ffffd1" id="svg_9" stroke="black"/>
  <path d="m909.06,90.36c-0.07,-0.98 -0.48,-1.83 -1.74,-2.74c-1.27,-0.91 -2.31,-1.46 -4.59,-1.81c-2.27,-0.34 -3.88,-0.57 -6.79,0.07c-2.91,0.64 -4.64,1.56 -7.76,3.11c-3.12,1.56 -4.98,2.57 -7.83,4.67c-2.86,2.11 -4.58,3.35 -6.43,5.85c-1.85,2.51 -2.51,4.21 -2.82,6.69c-0.31,2.48 -0.01,3.9 1.28,5.72c1.28,1.81 2.58,2.83 5.15,3.36c2.58,0.52 4.49,0.43 7.71,-0.72c3.22,-1.16 4.95,-2.48 8.4,-5.05c3.45,-2.57 5.33,-4.14 8.85,-7.8c3.52,-3.66 5.42,-5.85 8.75,-10.5c3.34,-4.66 5,-7.48 7.93,-12.78c2.93,-5.31 4.36,-8.37 6.71,-13.73c2.35,-5.36 3.44,-8.32 5.04,-13.1c1.6,-4.78 2.63,-7.41 2.97,-10.8c0.33,-3.38 -0.22,-4.98 -1.31,-6.12c-1.09,-1.15 -2.64,-1.05 -4.16,0.42c-1.51,1.48 -2.31,3.21 -3.42,6.95c-1.12,3.74 -1.52,6.64 -2.14,11.76c-0.63,5.12 -0.77,8.41 -0.98,13.84c-0.2,5.42 -0.36,8.32 -0.05,13.28c0.31,4.96 0.59,7.42 1.59,11.52c1,4.11 1.6,5.97 3.41,8.98c1.8,3.02 2.95,4.41 5.61,6.11c2.66,1.7 4.48,2.23 7.69,2.37c3.21,0.15 5.03,-0.41 8.37,-1.64c3.33,-1.22 5.07,-2.3 8.29,-4.49c3.23,-2.2 4.95,-3.76 7.83,-6.49c2.89,-2.72 4.36,-4.42 6.59,-7.15c2.23,-2.74 3.47,-4.11 4.56,-6.53c1.09,-2.42 1.27,-3.79 0.9,-5.57c-0.36,-1.78 -1.16,-2.7 -2.71,-3.33c-1.55,-0.64 -2.94,-0.65 -5.03,0.15c-2.08,0.81 -3.45,1.74 -5.4,3.87c-1.94,2.13 -2.87,3.88 -4.33,6.8c-1.46,2.91 -2.34,4.64 -2.99,7.78c-0.64,3.14 -0.83,5.06 -0.24,7.9c0.58,2.84 1.37,4.26 3.16,6.29c1.8,2.03 3.12,2.89 5.82,3.87c2.7,0.97 4.5,1.22 7.67,1.02c3.17,-0.2 5.01,-0.8 8.16,-2.02c3.15,-1.21 4.84,-2.13 7.59,-4.05c2.74,-1.93 4.22,-3.1 6.13,-5.57c1.92,-2.47 2.67,-4.05 3.43,-6.76c0.77,-2.72 0.87,-4.29 0.41,-6.83c-0.47,-2.54 -1.12,-3.91 -2.73,-5.87c-1.61,-1.96 -2.96,-2.86 -5.33,-3.91c-2.37,-1.06 -4.02,-1.34 -6.53,-1.36c-2.51,-0.01 -4.15,0.27 -6,1.28c-1.85,1.01 -2.8,2.16 -3.25,3.78c-0.44,1.61 -0.19,2.96 1.03,4.31c1.22,1.36 2.49,2.2 5.07,2.46c2.58,0.26 4.41,-0.2 7.83,-1.16c3.41,-0.96 5.36,-1.89 9.23,-3.63c3.87,-1.74 6.04,-2.75 10.12,-5.05c4.08,-2.31 6.33,-3.61 10.29,-6.48c3.96,-2.87 5.98,-4.52 9.5,-7.86c3.52,-3.35 5.25,-5.29 8.11,-8.87c2.86,-3.59 4.21,-5.56 6.21,-9.04c2,-3.49 3.08,-5.31 3.77,-8.4c0.7,-3.09 0.53,-4.79 -0.29,-7.06c-0.83,-2.26 -1.78,-3.31 -3.81,-4.25c-2.03,-0.94 -3.7,-1.24 -6.35,-0.45c-2.65,0.79 -4.29,1.85 -6.89,4.39c-2.61,2.55 -3.85,4.47 -6.13,8.34c-2.29,3.86 -3.49,6.3 -5.29,10.97c-1.8,4.68 -2.65,7.44 -3.71,12.4c-1.06,4.97 -1.42,7.67 -1.6,12.42c-0.18,4.75 -0.13,7.21 0.7,11.33c0.83,4.11 1.57,6.11 3.44,9.24c1.88,3.12 3.26,4.46 5.94,6.38c2.67,1.92 4.32,2.54 7.43,3.22c3.12,0.67 4.92,0.62 8.14,0.16c3.21,-0.46 4.91,-1.13 7.93,-2.45c3.02,-1.32 4.53,-2.34 7.17,-4.13c2.64,-1.8 4.15,-3.01 6.03,-4.86c1.89,-1.84 2.68,-3.09 3.4,-4.36c0.72,-1.27 0.46,-1.91 0.22,-1.99c-0.24,-0.08 -0.88,0.35 -1.42,1.59c-0.54,1.23 -1.17,2.56 -1.27,4.6c-0.1,2.05 0.12,3.7 0.78,5.62c0.65,1.93 1.55,2.88 2.5,4.03c0.96,1.15 1.47,1.52 2.26,1.74c0.79,0.23 1.21,-0.02 1.69,-0.62c0.48,-0.61 0.44,-1.15 0.72,-2.42c0.28,-1.26 0.58,-2.12 0.68,-3.91c0.09,-1.8 0.19,-3.08 -0.21,-5.06c-0.4,-1.99 -0.79,-3.33 -1.78,-4.87c-1,-1.53 -1.74,-2.29 -3.18,-2.81c-1.45,-0.52 -2.26,-0.46 -4.03,0.22c-1.77,0.68 -2.81,1.6 -4.82,3.2c-2.01,1.6 -2.98,3.09 -5.23,4.8c-2.24,1.7 -3.51,2.57 -5.99,3.73c-2.47,1.15 -3.88,1.59 -6.38,2.03c-2.5,0.44 -3.8,0.51 -6.13,0.14c-2.33,-0.37 -3.45,-0.69 -5.54,-1.99c-2.09,-1.31 -3.26,-2.1 -4.9,-4.53c-1.65,-2.42 -2.47,-4.02 -3.32,-7.6c-0.84,-3.58 -1.02,-5.9 -0.9,-10.3c0.11,-4.41 0.42,-7.04 1.46,-11.72c1.05,-4.67 1.91,-7.35 3.77,-11.66c1.85,-4.32 3.17,-6.62 5.51,-9.92c2.33,-3.3 3.94,-4.59 6.17,-6.58c2.23,-2 3.41,-2.48 4.97,-3.41c1.56,-0.92 2.06,-1.3 2.82,-1.23c0.76,0.07 0.94,0.31 0.97,1.58c0.03,1.26 -0.17,2.29 -0.83,4.75c-0.66,2.47 -0.9,4.32 -2.48,7.57c-1.57,3.25 -2.79,5.24 -5.39,8.69c-2.6,3.45 -4.25,5.35 -7.59,8.55c-3.34,3.2 -5.29,4.78 -9.12,7.45c-3.83,2.67 -6.03,3.9 -10.02,5.9c-3.99,2.01 -6.16,2.91 -9.92,4.12c-3.76,1.21 -5.82,1.41 -8.89,1.94c-3.07,0.53 -4.53,0.37 -6.46,0.71c-1.93,0.33 -2.52,0.58 -3.18,0.96c-0.66,0.38 -0.59,0.68 -0.12,0.94c0.47,0.27 1.16,0.38 2.47,0.39c1.31,0 2.39,-0.37 4.07,-0.37c1.68,0 2.79,-0.06 4.33,0.37c1.54,0.42 2.39,0.78 3.38,1.73c0.99,0.96 1.37,1.6 1.57,3.04c0.2,1.44 0.09,2.4 -0.58,4.16c-0.68,1.76 -1.27,2.83 -2.79,4.63c-1.52,1.81 -2.58,2.88 -4.8,4.39c-2.21,1.51 -3.71,2.28 -6.26,3.17c-2.56,0.89 -4.13,1.02 -6.52,1.29c-2.4,0.27 -3.66,0.38 -5.47,0.05c-1.81,-0.34 -2.61,-0.66 -3.6,-1.72c-0.99,-1.06 -1.32,-1.78 -1.36,-3.57c-0.05,-1.8 0.36,-3.12 1.15,-5.41c0.79,-2.28 1.42,-3.78 2.79,-6.02c1.37,-2.25 2.66,-3.37 4.04,-5.21c1.37,-1.84 2.06,-2.75 2.85,-4c0.8,-1.25 0.99,-1.83 1.12,-2.25c0.13,-0.41 0.08,-0.47 -0.49,0.18c-0.56,0.65 -1.08,1.29 -2.33,3.09c-1.24,1.79 -1.95,3.33 -3.9,5.87c-1.94,2.55 -3.22,4.33 -5.82,6.87c-2.6,2.53 -4.29,3.93 -7.18,5.82c-2.89,1.9 -4.55,2.67 -7.28,3.66c-2.72,0.99 -4.03,1.25 -6.33,1.28c-2.3,0.03 -3.28,-0.05 -5.17,-1.12c-1.88,-1.08 -2.72,-1.9 -4.26,-4.26c-1.54,-2.36 -2.4,-3.89 -3.44,-7.54c-1.04,-3.65 -1.45,-6.01 -1.77,-10.73c-0.33,-4.71 -0.21,-7.59 0.16,-12.82c0.37,-5.23 0.78,-8.47 1.7,-13.34c0.92,-4.87 2.03,-7.48 2.89,-11.02c0.85,-3.54 1.3,-5.05 1.39,-6.69c0.08,-1.65 -0.48,-2.19 -0.98,-1.54c-0.5,0.66 -0.85,1.76 -1.52,4.81c-0.68,3.05 -0.58,5.78 -1.85,10.45c-1.28,4.67 -2.3,7.62 -4.51,12.89c-2.21,5.26 -3.66,8.29 -6.54,13.43c-2.89,5.15 -4.57,7.9 -7.9,12.3c-3.34,4.39 -5.26,6.45 -8.77,9.69c-3.52,3.25 -5.5,4.58 -8.81,6.53c-3.3,1.95 -5.16,2.34 -7.73,3.23c-2.58,0.9 -3.64,1.05 -5.16,1.24c-1.51,0.19 -2.01,0.18 -2.43,-0.29c-0.42,-0.48 -0.36,-0.89 0.31,-2.09c0.67,-1.19 1.41,-2.14 3.03,-3.89c1.63,-1.76 2.69,-3.18 5.1,-4.9c2.4,-1.72 4.24,-2.6 6.93,-3.7c2.69,-1.11 4.26,-1.39 6.53,-1.83c2.27,-0.44 3.21,-0.3 4.8,-0.38c1.6,-0.08 2.1,0.03 3.18,-0.02c1.09,-0.04 1.52,0.27 2.25,-0.21c0.73,-0.47 1.45,-1.19 1.38,-2.17" fill="#ffffd1" id="svg_10" stroke="black"/>
  <path d="m1075.32,46.2c0.51,-0.39 0.34,-0.76 -0.29,-0.61c-0.63,0.15 -2.35,0.97 -2.86,1.36c-0.51,0.39 -0.34,0.76 0.29,0.61c0.63,-0.15 2.34,-0.96 2.86,-1.36" fill="#ffffd1" id="svg_11" stroke="black"/>
  <path d="m1094.57,87.82c-0.78,0.79 -0.9,1.83 -1.24,3.6c-0.33,1.78 -0.46,3.07 -0.45,5.3c0.02,2.22 0.11,3.77 0.53,5.83c0.42,2.05 0.7,3.05 1.58,4.45c0.88,1.4 1.45,2.04 2.81,2.54c1.36,0.5 2.29,0.6 4,-0.03c1.71,-0.63 2.7,-1.34 4.54,-3.12c1.85,-1.78 2.56,-3.39 4.67,-5.78c2.11,-2.39 3.48,-4.02 5.91,-6.17c2.43,-2.15 4.03,-3.17 6.24,-4.58c2.2,-1.41 3.19,-1.98 4.79,-2.47c1.6,-0.5 2.26,-0.42 3.2,0.01c0.95,0.43 1.12,0.93 1.52,2.13c0.4,1.2 0.28,2.16 0.48,3.86c0.19,1.7 0.12,2.85 0.5,4.65c0.37,1.81 0.5,2.85 1.38,4.35c0.89,1.51 1.48,2.4 3.03,3.19c1.54,0.78 2.61,1.06 4.7,0.75c2.1,-0.31 3.38,-0.83 5.76,-2.3c2.38,-1.47 3.47,-3.05 6.15,-5.05c2.68,-2 4.37,-3.34 7.23,-4.96c2.87,-1.62 4.51,-2.34 7.09,-3.14c2.57,-0.8 3.83,-0.95 5.81,-0.85c1.98,0.11 2.79,0.4 4.09,1.38c1.29,0.97 1.62,1.8 2.39,3.51c0.77,1.71 0.95,2.99 1.47,5.02c0.51,2.03 0.6,3.38 1.11,5.13c0.5,1.75 0.85,2.49 1.4,3.62c0.55,1.14 0.74,1.65 1.36,2.05c0.62,0.41 1.13,0.42 1.73,-0.04c0.59,-0.46 0.84,-0.95 1.25,-2.27c0.41,-1.31 0.82,-2.21 0.78,-4.29c-0.05,-2.08 -0.23,-3.68 -1.02,-6.12c-0.78,-2.45 -1.4,-3.94 -2.9,-6.12c-1.5,-2.19 -2.36,-3.34 -4.59,-4.8c-2.23,-1.46 -3.65,-2.14 -6.55,-2.51c-2.89,-0.37 -4.69,-0.18 -7.93,0.68c-3.23,0.85 -4.97,1.93 -8.24,3.58c-3.28,1.65 -5.16,2.89 -8.13,4.67c-2.98,1.77 -4.67,2.67 -6.75,4.2c-2.07,1.53 -2.73,2.5 -3.64,3.44c-0.92,0.93 -0.88,1.27 -0.94,1.23c-0.07,-0.04 0.42,-0.38 0.6,-1.43c0.18,-1.06 0.41,-2.04 0.31,-3.85c-0.11,-1.8 -0.19,-3.12 -0.84,-5.19c-0.64,-2.07 -1.03,-3.42 -2.38,-5.17c-1.35,-1.76 -2.27,-2.7 -4.35,-3.6c-2.07,-0.91 -3.41,-1.19 -6.01,-0.92c-2.6,0.26 -4.18,0.75 -6.99,2.26c-2.81,1.5 -4.27,3.01 -7.07,5.26c-2.79,2.25 -4.42,3.7 -6.9,5.98c-2.49,2.28 -3.94,3.43 -5.5,5.4c-1.57,1.96 -1.92,3.15 -2.32,4.42c-0.41,1.27 -0.06,1.8 0.3,1.94c0.35,0.14 0.96,-0.14 1.47,-1.23c0.51,-1.1 0.93,-2.21 1.07,-4.24c0.15,-2.03 -0.04,-3.67 -0.37,-5.91c-0.33,-2.24 -0.59,-3.57 -1.28,-5.3c-0.69,-1.73 -1.21,-2.75 -2.18,-3.35c-0.97,-0.6 -1.89,-0.43 -2.68,0.36" fill="#ffffd1" id="svg_12" stroke="black"/>
 </g>
</svg>