<?xml version="1.0" standalone="no"?>
<!DOCTYPE svg PUBLIC "-//W3C//DTD SVG 20010904//EN"
 "http://www.w3.org/TR/2001/REC-SVG-20010904/DTD/svg10.dtd">
<svg version="1.0" xmlns="http://www.w3.org/2000/svg"
 width="1280.000000pt" height="967.000000pt" viewBox="0 0 1280.000000 967.000000"
 preserveAspectRatio="xMidYMid meet">
<metadata>
Created by potrace 1.15, written by Peter Selinger 2001-2017
</metadata>
<g transform="translate(0.000000,967.000000) scale(0.100000,-0.100000)"
fill="#000000" stroke="none">
<path d="M116 9488 c-3 -95 -10 -616 -16 -1158 -6 -542 -15 -1327 -20 -1745
-5 -418 -14 -1131 -20 -1585 -19 -1552 -30 -2495 -45 -3665 -8 -643 -15 -1193
-15 -1221 l0 -50 148 -17 c317 -36 414 -42 772 -42 354 1 460 6 802 42 146 15
169 15 320 0 342 -35 453 -41 793 -41 343 0 426 5 712 41 123 15 142 15 270 0
297 -36 405 -42 748 -41 340 0 429 5 746 41 137 15 156 15 285 0 297 -36 406
-41 764 -41 354 0 436 4 778 40 146 16 167 16 395 -2 343 -27 1069 -27 1377 0
214 18 216 18 425 -3 541 -54 1003 -53 1482 5 125 16 143 15 315 -2 263 -27
987 -27 1386 0 l282 20 0 35 c0 20 -5 203 -10 406 -9 365 -20 801 -40 1615 -6
228 -15 593 -20 810 -6 217 -19 766 -30 1220 -11 454 -24 1003 -30 1220 -6
217 -19 766 -30 1220 -11 454 -24 1001 -30 1215 -14 567 -31 1238 -38 1565
l-7 285 -6221 3 -6222 2 -6 -172z m965 -638 c-6 -366 -16 -915 -21 -1220 -10
-557 -21 -1218 -40 -2360 -6 -338 -15 -847 -20 -1130 -6 -283 -10 -602 -10
-709 l0 -194 318 7 c174 3 362 9 418 12 l101 6 6 -758 c4 -418 10 -1131 14
-1585 l6 -826 -69 -7 c-473 -47 -780 -59 -1111 -46 -213 9 -453 29 -589 48
l-49 7 3 255 c10 901 25 2108 52 4340 21 1700 30 2471 40 3265 5 451 12 1010
16 1242 l7 423 466 2 466 3 3 -55 c2 -30 -1 -354 -7 -720z m2172 -355 c4 -621
7 -1989 7 -3040 0 -1050 3 -1981 7 -2067 l6 -158 182 0 182 0 6 -433 c4 -237
8 -943 9 -1567 l1 -1135 -84 -12 c-409 -60 -928 -62 -1489 -7 -91 9 -166 17
-167 18 -2 1 -7 510 -12 1132 -6 621 -13 1333 -16 1581 l-5 453 159 0 159 0 6
453 c7 512 21 2138 36 4232 6 781 13 1479 16 1550 l6 130 492 0 493 0 6 -1130z
m2142 1123 c2 -3 17 -4549 28 -8623 l2 -900 -50 -7 c-281 -41 -742 -62 -1050
-48 -200 9 -299 18 -562 47 l-53 6 0 1568 0 1569 415 0 416 0 -6 363 c-3 199
-10 1127 -16 2062 -5 935 -14 2209 -19 2830 -4 622 -7 1132 -5 1135 3 5 896 3
900 -2z m1009 -531 c3 -292 11 -1117 16 -1832 6 -715 15 -1775 20 -2355 6
-580 10 -1173 10 -1317 l0 -263 118 0 c65 0 247 -3 404 -7 l285 -6 6 -1601 c3
-881 2 -1604 -1 -1607 -9 -8 -260 -36 -457 -50 -194 -14 -699 -14 -885 0 -80
6 -211 19 -291 28 l-147 16 -6 641 c-3 353 -11 1683 -16 2956 -6 1273 -15
3126 -20 4118 -6 992 -8 1806 -6 1810 2 4 220 6 484 4 l480 -2 6 -533z m2006
456 c0 -49 4 -250 10 -448 5 -198 14 -553 20 -790 6 -236 15 -610 20 -830 5
-220 14 -589 20 -820 6 -231 15 -600 20 -820 24 -973 47 -1948 56 -2312 l7
-283 247 0 248 0 6 -212 c3 -117 10 -717 16 -1333 5 -616 11 -1228 12 -1360
l3 -240 -125 -11 c-466 -44 -865 -44 -1477 -3 l-183 13 0 775 c0 427 3 1151 7
1609 l6 832 130 0 129 0 -6 363 c-4 199 -11 674 -16 1055 -6 380 -14 1001 -20
1380 -5 378 -15 1013 -20 1412 -6 399 -15 1000 -20 1335 -6 336 -10 645 -10
687 l0 77 83 4 c45 1 252 4 460 5 l377 2 0 -87z m2104 -88 c3 -93 8 -336 11
-540 3 -203 10 -631 15 -950 5 -319 14 -857 20 -1195 6 -338 15 -874 20 -1190
5 -316 14 -874 20 -1240 6 -366 13 -761 16 -877 l6 -213 128 0 128 0 6 -182
c3 -101 10 -460 16 -798 18 -1044 29 -1685 35 -1936 l6 -240 -153 -17 c-84 -9
-209 -22 -278 -28 -160 -15 -690 -15 -885 0 -225 17 -469 42 -476 50 -4 3 -9
711 -12 1573 l-6 1568 247 2 247 3 -4 285 -3 285 42 115 43 115 -12 490 c-6
270 -16 650 -21 845 -5 195 -14 537 -20 760 -20 804 -30 1185 -45 1750 -17
611 -36 1721 -30 1730 2 3 212 5 468 5 l465 0 6 -170z m2020 30 c4 -77 15
-522 26 -990 11 -467 25 -1025 30 -1240 5 -214 14 -579 20 -810 6 -231 15
-598 20 -815 6 -217 19 -766 30 -1220 11 -454 24 -1003 30 -1220 6 -217 19
-766 30 -1220 11 -454 24 -1005 30 -1225 5 -220 11 -456 12 -525 l3 -125 -250
-17 c-521 -36 -1038 -34 -1417 4 l-116 11 -6 81 c-3 45 -10 551 -16 1126 -6
575 -13 1248 -17 1496 l-6 451 386 8 387 7 0 188 0 188 80 178 c73 161 80 183
80 240 0 56 -19 456 -50 1074 -6 113 -33 671 -60 1240 -27 569 -54 1127 -60
1240 -6 113 -20 385 -31 605 -19 382 -44 1377 -36 1399 3 8 141 11 450 11
l445 0 6 -140z m-1977 -362 c-1 -49 -3 -9 -3 87 0 96 2 136 3 88 2 -49 2 -127
0 -175z m10 -450 c-2 -27 -3 -5 -3 47 0 52 1 74 3 48 2 -27 2 -69 0 -95z
m-7248 -2673 c6 -344 16 -962 23 -1375 l11 -750 101 -300 101 -300 135 -5 135
-6 -165 -1 c-91 0 -157 1 -147 4 9 2 17 12 17 20 0 9 -42 145 -94 302 l-94
286 -11 710 c-6 391 -14 854 -19 1030 -7 314 -7 308 -12 -330 -4 -440 -5 -197
-6 750 -1 974 2 1277 7 995 4 -223 12 -686 18 -1030z m6269 -2502 l-2 -223 -6
190 c-6 219 -1 219 -83 -7 -65 -176 -63 -166 -30 -171 23 -3 21 -4 -9 -6 -21
0 -38 1 -38 3 0 2 36 99 80 217 44 117 80 214 80 216 0 2 2 3 5 3 3 0 4 -100
3 -222z m-6276 -50 c2 -104 0 -188 -4 -188 -4 0 -7 93 -7 208 2 247 7 238 11
-20z m8367 -54 l1 -101 -512 -6 c-282 -3 -515 -3 -517 -1 -2 2 -2 7 1 10 3 3
231 6 507 7 l501 2 -1 95 c0 106 2 107 -54 -24 -14 -32 -28 -56 -31 -54 -3 3
17 54 43 113 56 124 60 121 62 -41z m-10652 -96 c-2 -18 -4 -6 -4 27 0 33 2
48 4 33 2 -15 2 -42 0 -60z m141 -25 c-16 -2 -40 -2 -55 0 -16 2 -3 4 27 4 30
0 43 -2 28 -4z"/>
</g>
</svg>
